<svg width="23" height="23" viewBox="0 0 23 23" fill="none" xmlns="http://www.w3.org/2000/svg">
<path d="M20.0779 3.75051L22.4142 1.41421L21 0L18.6637 2.3363C15.4971 -0.133693 10.9125 0.0875697 7.99999 3.00007L2.70714 8.29293L1.41421 7L0 8.41421L4.29291 12.7071L3.99998 13C2.50489 14.4951 2.50489 16.9192 3.99998 18.4143C5.49508 19.9094 7.91911 19.9094 9.4142 18.4143L9.70712 18.1213L14 22.4142L15.4142 21L14.1214 19.7071L19.4142 14.4143C22.3267 11.5018 22.548 6.91707 20.0779 3.75051ZM5.4142 14.4143L5.70712 14.1213L8.29291 16.7071L7.99999 17C7.28594 17.7141 6.12824 17.7141 5.4142 17C4.70015 16.286 4.70015 15.1283 5.4142 14.4143ZM9.41421 4.41429C11.7851 2.04339 15.6291 2.04338 18 4.41428C20.3709 6.78518 20.3709 10.6292 18 13.0001L12.7071 18.2929L4.12135 9.70714L9.41421 4.41429Z" fill="black"/>
</svg>
